<svg width="386" height="83" viewBox="0 0 386 83" fill="none" xmlns="http://www.w3.org/2000/svg">
<path d="M86 74V12.176H104.048V60.176H131.888V74H86ZM150.927 74.96C148.047 74.96 145.359 74.448 142.863 73.424C140.431 72.4 138.479 70.8 137.007 68.624C135.535 66.448 134.799 63.696 134.799 60.368C134.799 55.568 136.399 51.856 139.599 49.232C142.799 46.544 147.631 45.2 154.095 45.2H165.903V44.336C165.903 42.544 165.167 41.232 163.695 40.4C162.223 39.568 159.631 39.152 155.919 39.152C150.671 39.152 145.487 39.952 140.367 41.552V30.704C142.671 29.808 145.551 29.072 149.007 28.496C152.463 27.856 155.983 27.536 159.567 27.536C166.799 27.536 172.527 29.008 176.751 31.952C180.975 34.896 183.087 39.568 183.087 45.968V74H167.343L166.479 70.352C164.879 71.76 162.799 72.88 160.239 73.712C157.743 74.544 154.639 74.96 150.927 74.96ZM157.071 64.4C159.119 64.4 160.847 64.048 162.255 63.344C163.727 62.64 164.943 61.776 165.903 60.752V55.088H157.167C153.199 55.088 151.215 56.656 151.215 59.792C151.215 62.864 153.167 64.4 157.071 64.4ZM215.953 74.96C206.865 74.96 200.145 72.944 195.793 68.912C191.505 64.88 189.361 58.992 189.361 51.248C189.361 43.568 191.537 37.712 195.889 33.68C200.241 29.584 206.929 27.536 215.953 27.536C225.041 27.536 231.761 29.584 236.113 33.68C240.529 37.712 242.737 43.568 242.737 51.248C242.737 58.992 240.561 64.88 236.209 68.912C231.857 72.944 225.105 74.96 215.953 74.96ZM215.953 61.808C218.897 61.808 221.009 60.976 222.289 59.312C223.633 57.648 224.305 54.96 224.305 51.248C224.305 47.6 223.633 44.944 222.289 43.28C221.009 41.552 218.897 40.688 215.953 40.688C213.073 40.688 210.993 41.552 209.713 43.28C208.433 44.944 207.793 47.6 207.793 51.248C207.793 54.96 208.433 57.648 209.713 59.312C210.993 60.976 213.073 61.808 215.953 61.808ZM249.5 74V28.496H266.396L266.876 31.952C268.604 30.8 270.876 29.776 273.692 28.88C276.572 27.984 279.644 27.536 282.908 27.536C288.604 27.536 292.764 28.944 295.388 31.76C298.012 34.576 299.324 38.928 299.324 44.816V74H281.276V46.64C281.276 44.592 280.828 43.12 279.932 42.224C279.036 41.328 277.468 40.88 275.228 40.88C273.884 40.88 272.476 41.2 271.004 41.84C269.596 42.48 268.444 43.248 267.548 44.144V74H249.5ZM309.934 74V41.84H304.078V28.496H309.934V25.52C309.934 20.4 311.406 16.176 314.35 12.848C317.294 9.45601 321.71 7.76001 327.598 7.76001C330.094 7.76001 332.302 7.95201 334.222 8.33601C336.206 8.72001 338.062 9.26401 339.79 9.96801V21.68C338.83 21.36 337.87 21.104 336.91 20.912C336.014 20.72 335.054 20.624 334.03 20.624C331.726 20.624 330.126 21.04 329.23 21.872C328.398 22.704 327.982 24.048 327.982 25.904V28.496H338.734L337.966 41.84H327.982V74H309.934ZM353.802 74.96C350.922 74.96 348.234 74.448 345.738 73.424C343.306 72.4 341.354 70.8 339.882 68.624C338.41 66.448 337.674 63.696 337.674 60.368C337.674 55.568 339.274 51.856 342.474 49.232C345.674 46.544 350.506 45.2 356.97 45.2H368.778V44.336C368.778 42.544 368.042 41.232 366.57 40.4C365.098 39.568 362.506 39.152 358.794 39.152C353.546 39.152 348.362 39.952 343.242 41.552V30.704C345.546 29.808 348.426 29.072 351.882 28.496C355.338 27.856 358.858 27.536 362.442 27.536C369.674 27.536 375.402 29.008 379.626 31.952C383.85 34.896 385.962 39.568 385.962 45.968V74H370.218L369.354 70.352C367.754 71.76 365.674 72.88 363.114 73.712C360.618 74.544 357.514 74.96 353.802 74.96ZM359.946 64.4C361.994 64.4 363.722 64.048 365.13 63.344C366.602 62.64 367.818 61.776 368.778 60.752V55.088H360.042C356.074 55.088 354.09 56.656 354.09 59.792C354.09 62.864 356.042 64.4 359.946 64.4Z" fill="#746AE6"/>
<path d="M8.72803 46.848L29.464 0H44.344L65.08 46.848H48.28L36.952 19.2L25.528 46.848H8.72803Z" fill="#93D9BF"/>
<path d="M0.0880127 49.7362C4.82401 54.8562 10.232 58.5042 16.312 60.6802C22.392 62.8562 28.984 63.9442 36.088 63.9442C43.128 63.9442 49.72 62.8562 55.864 60.6802C62.008 58.5042 67.416 54.8562 72.088 49.7362V70.28C67.928 74.312 62.712 77.32 56.44 79.304C50.168 81.352 43.384 82.376 36.088 82.376C28.728 82.376 21.912 81.352 15.64 79.304C9.43201 77.32 4.24801 74.312 0.0880127 70.28V49.7362Z" fill="#746AE6"/>
</svg>
